<svg width="191" height="48" viewBox="0 0 191 48" fill="none" xmlns="http://www.w3.org/2000/svg">
<path d="M64.3145 21.7238V12.4095L65.9535 16.6873L56.301 0.485801H63.8591L70.3852 11.5599H65.9838L72.5707 0.485801H79.4913L69.8996 16.6873L71.478 12.4095V21.7238H64.3145Z" fill="#3F4443"/>
<path d="M76.7299 21.7236L86.0181 0.485581H93.0604L102.349 21.7236H94.9423L88.0822 3.88368H90.8749L84.0148 21.7236H76.7299ZM82.2542 18.0222L84.0755 12.8643H93.8496L95.6708 18.0222H82.2542Z" fill="#3F4443"/>
<path d="M103.493 21.7235V0.485487H109.382L120.188 13.4103H117.456V0.485487H124.437V21.7235H118.548L107.742 8.79872H110.474V21.7235H103.493Z" fill="#3F4443"/>
<path d="M132.502 21.7236V6.03777H126.279V0.485524H145.888V6.03777H139.665V21.7236H132.502Z" fill="#3F4443"/>
<path d="M158.592 22.2092C156.871 22.2092 155.273 21.9362 153.797 21.3901C152.339 20.8439 151.074 20.0754 150.002 19.0842C148.929 18.0728 148.09 16.8896 147.482 15.5345C146.895 14.1792 146.601 12.7027 146.601 11.1047C146.601 9.48661 146.895 8.01011 147.482 6.6751C148.09 5.31989 148.929 4.14675 150.002 3.15564C151.074 2.14431 152.339 1.36557 153.797 0.819453C155.273 0.273332 156.871 0.000271659 158.592 0.000271659C160.332 0.000271659 161.931 0.273332 163.388 0.819453C164.844 1.36557 166.109 2.14431 167.183 3.15564C168.254 4.14675 169.084 5.31989 169.671 6.6751C170.279 8.01011 170.582 9.48661 170.582 11.1047C170.582 12.7027 170.279 14.1792 169.671 15.5345C169.084 16.8896 168.254 18.0728 167.183 19.0842C166.109 20.0754 164.844 20.8439 163.388 21.3901C161.931 21.9362 160.332 22.2092 158.592 22.2092ZM158.592 16.4142C159.26 16.4142 159.877 16.2928 160.444 16.0503C161.03 15.8075 161.537 15.4636 161.961 15.0187C162.407 14.5534 162.751 13.9972 162.993 13.35C163.237 12.6825 163.358 11.9341 163.358 11.1047C163.358 10.2754 163.237 9.53711 162.993 8.88985C162.751 8.22239 162.407 7.6662 161.961 7.22122C161.537 6.756 161.03 6.40204 160.444 6.15931C159.877 5.91658 159.26 5.79523 158.592 5.79523C157.925 5.79523 157.297 5.91658 156.711 6.15931C156.144 6.40204 155.637 6.756 155.192 7.22122C154.767 7.6662 154.434 8.22239 154.19 8.88985C153.948 9.53711 153.826 10.2754 153.826 11.1047C153.826 11.9341 153.948 12.6825 154.19 13.35C154.434 13.9972 154.767 14.5534 155.192 15.0187C155.637 15.4636 156.144 15.8075 156.711 16.0503C157.297 16.2928 157.925 16.4142 158.592 16.4142Z" fill="#3F4443"/>
<path d="M181.105 22.209C179.324 22.209 177.605 22.0066 175.945 21.6021C174.285 21.1976 172.919 20.6717 171.847 20.0244L174.153 14.806C175.166 15.3925 176.29 15.8678 177.524 16.232C178.778 16.5759 179.992 16.7477 181.165 16.7477C181.854 16.7477 182.39 16.7073 182.774 16.6264C183.179 16.5252 183.473 16.3937 183.655 16.232C183.837 16.05 183.927 15.8375 183.927 15.5948C183.927 15.2105 183.716 14.9071 183.29 14.6846C182.866 14.4621 182.3 14.2801 181.591 14.1385C180.903 13.9767 180.144 13.8148 179.314 13.653C178.484 13.4711 177.645 13.2384 176.795 12.9553C175.965 12.6721 175.196 12.2979 174.487 11.8326C173.8 11.3675 173.244 10.7606 172.818 10.0122C172.394 9.24359 172.181 8.29298 172.181 7.16026C172.181 5.84552 172.546 4.65215 173.273 3.58014C174.022 2.48788 175.126 1.61815 176.582 0.970887C178.06 0.323629 179.891 0 182.076 0C183.512 0 184.93 0.151705 186.325 0.455101C187.722 0.758496 188.977 1.22371 190.09 1.85074L187.934 7.0389C186.883 6.513 185.86 6.11859 184.869 5.85564C183.898 5.5927 182.946 5.46121 182.016 5.46121C181.327 5.46121 180.781 5.5219 180.376 5.64325C179.972 5.76462 179.678 5.92643 179.496 6.1287C179.334 6.33096 179.254 6.55345 179.254 6.79618C179.254 7.16026 179.465 7.45349 179.891 7.67603C180.315 7.87837 180.872 8.05024 181.56 8.19182C182.269 8.33339 183.038 8.48507 183.868 8.647C184.717 8.80877 185.556 9.03131 186.386 9.31446C187.216 9.5976 187.976 9.97182 188.663 10.4369C189.371 10.9022 189.937 11.5091 190.363 12.2573C190.787 13.0058 191 13.9362 191 15.0487C191 16.3432 190.626 17.5366 189.878 18.6288C189.149 19.7009 188.055 20.5705 186.599 21.238C185.142 21.8853 183.31 22.209 181.105 22.209Z" fill="#3F4443"/>
<path d="M64.2239 47.9996L57.4246 26.7615H64.8005L70.2947 44.6925H66.5914L72.4194 26.7615H79.0063L84.4395 44.6925H80.8882L86.625 26.7615H93.4244L86.625 47.9996H78.9455L74.5138 33.3149H76.5779L71.9034 47.9996H64.2239Z" fill="#3F4443"/>
<path d="M95.0149 47.9996V26.7614H102.178V47.9996H95.0149Z" fill="#3F4443"/>
<path d="M105.627 47.9995V26.7614H115.856C117.839 26.7614 119.549 27.0851 120.986 27.7323C122.443 28.3796 123.566 29.31 124.355 30.5235C125.144 31.7169 125.539 33.1328 125.539 34.7712C125.539 36.4095 125.144 37.8254 124.355 39.0187C123.566 40.1918 122.443 41.0919 120.986 41.719C119.549 42.3461 117.839 42.6595 115.856 42.6595H109.603L112.79 39.7166V47.9995H105.627ZM118.345 47.9995L113.124 40.2627H120.713L125.994 47.9995H118.345ZM112.79 40.5054L109.603 37.2591H115.401C116.392 37.2591 117.121 37.0365 117.586 36.5916C118.072 36.1465 118.315 35.5398 118.315 34.7712C118.315 34.0026 118.072 33.3957 117.586 32.9508C117.121 32.5057 116.392 32.2833 115.401 32.2833H109.603L112.79 29.0369V40.5054Z" fill="#3F4443"/>
<path d="M134.8 34.6503H144.271V39.808H134.8V34.6503ZM135.286 42.5994H145.909V48H128.243V26.7619H145.515V32.1625H135.286V42.5994Z" fill="#3F4443"/>
<path d="M44.1422 37.0658C40.4579 38.3093 37.0222 40.0252 33.9814 42.1664C30.7773 44.4225 27.1743 46.2253 23.3234 47.5334H12.6148C20.0374 46.7897 27.0339 44.2807 32.673 40.31C36.101 37.8962 39.9858 36.0012 44.1422 34.6759V37.0658Z" fill="#3F4443"/>
<path d="M44.1422 43.3513C41.2229 44.4518 38.4749 45.8537 35.9738 47.5334H33.2187C33.6229 47.2718 34.0211 47.0035 34.4127 46.7278C37.3543 44.6564 40.6373 42.9697 44.1422 41.701V43.3513Z" fill="#3F4443"/>
<path d="M44.1422 29.8883C39.8247 31.1281 35.7641 33.0256 32.1598 35.5159C24.6452 40.708 15.3869 43.5132 5.8763 43.5132H0V39.7445H5.8763C14.6594 39.7445 23.1624 37.1513 30.0159 32.4159C34.2584 29.4847 39.0566 27.3143 44.1422 25.9798V29.8883Z" fill="#3F4443"/>
<path d="M44.1422 21.3029C39.0744 22.476 34.3202 24.4731 30.1734 27.1927C22.017 32.5418 12.0071 35.4101 1.75546 35.4101H0V28.6458H1.75546C10.7772 28.6458 19.4797 26.1156 26.4608 21.5373C31.7266 18.0839 37.7651 15.6647 44.1422 14.3836V21.3029Z" fill="#3F4443"/>
<path d="M44.1422 9.36688C38.0696 10.0472 32.3285 12.2716 27.5874 15.7823L27.5872 15.7821C19.9611 21.4293 10.5201 24.4705 0.836971 24.4705H0V14.0342H0.836971C8.35958 14.0342 15.6058 11.6665 21.3722 7.39635C25.9541 4.00356 31.1913 1.552 36.7424 0.134963H44.1422V9.36688Z" fill="#3F4443"/>
<path d="M26.0498 0.134963C23.4913 1.13047 21.1072 2.41017 18.9714 3.94121L18.7083 4.13212C12.7839 8.4782 6.26325 9.69219 0 10.0277V0.134963H26.0498Z" fill="#3F4443"/>
</svg>
