<svg width="390" height="310" viewBox="0 0 390 310" fill="none" xmlns="http://www.w3.org/2000/svg">
<g clip-path="url(#clip0_458_598)">
<path d="M390 125.657C333.657 136.955 280.306 158.289 233.783 188.744C172.105 229.119 95.2177 251.433 15.5098 251.433H0V214.611H7.39453C92.9459 214.611 176.359 187.793 243.736 137.991C285.624 107.031 336.348 87.4143 390 81.415V125.657ZM390 227.922C345.068 239.69 302.676 258.831 265.193 284.682C251.542 294.097 237.149 302.551 222.154 310H47.9766C127.058 304.704 203.164 280.134 266.585 238.618C303.222 214.635 345.226 197.023 390 186.677V227.922ZM390 304.611C384.686 306.303 379.422 308.1 374.214 310H287.096C318.197 289.03 353.032 272.986 390 262.39V304.611ZM324.622 0C275.578 12.4966 229.307 34.1166 188.825 64.0371C137.878 101.695 73.8573 122.576 7.39453 122.576H0V87.2422C55.3362 84.2834 112.947 73.5774 165.289 35.25L167.614 33.5664C186.484 20.0646 207.548 8.77914 230.152 0H324.622Z" fill="#3F4443"/>
</g>
<defs>
<clipPath id="clip0_458_598">
<rect width="390" height="310" fill="white"/>
</clipPath>
</defs>
</svg>
