<svg width="510" height="560" viewBox="0 0 510 560" fill="none" xmlns="http://www.w3.org/2000/svg">
<g clip-path="url(#clip0_382_8951)">
<path d="M127 235V272.624H122.752C106.663 272.624 91.1195 278.01 78.7029 287.794L78.7022 287.794C59.6063 302.842 35.8858 311 11.4907 311H0V273.376H11.4907C27.58 273.376 43.1238 267.99 55.5398 258.205L56.4386 257.505C75.3777 242.904 98.738 235 122.752 235H127Z" fill="#3F4443"/>
<path d="M127 160V197.624H122.719C106.503 197.624 90.837 203.01 78.3226 212.794L78.3219 212.794C59.0756 227.842 35.1684 236 10.5812 236H-1V198.376H10.5812C26.7972 198.376 42.4634 192.99 54.9771 183.205L55.883 182.505C74.9712 167.904 98.5155 160 122.719 160H127Z" fill="#3F4443"/>
<path d="M255 235V272.624H250.719C234.503 272.624 218.837 278.01 206.323 287.794L206.322 287.794C187.076 302.842 163.168 311 138.581 311H127V273.376H138.581C154.797 273.376 170.463 267.99 182.977 258.205L183.883 257.505C202.971 242.904 226.516 235 250.719 235H255Z" fill="#3F4443"/>
<path d="M255 160V197.624H250.719C234.503 197.624 218.837 203.01 206.323 212.794L206.322 212.794C187.076 227.842 163.168 236 138.581 236H127V198.376H138.581C154.797 198.376 170.463 192.99 182.977 183.205L183.883 182.505C202.971 167.904 226.516 160 250.719 160H255Z" fill="#3F4443"/>
<path d="M383 235V272.624H378.719C362.503 272.624 346.837 278.01 334.323 287.794L334.322 287.794C315.076 302.842 291.168 311 266.581 311H255V273.376H266.581C282.797 273.376 298.463 267.99 310.977 258.205L311.883 257.505C330.971 242.904 354.516 235 378.719 235H383Z" fill="#3F4443"/>
<path d="M382 160V197.624H377.752C361.663 197.624 346.119 203.01 333.703 212.794L333.702 212.794C314.606 227.842 290.886 236 266.491 236H255V198.376H266.491C282.58 198.376 298.124 192.99 310.54 183.205L311.439 182.505C330.378 167.904 353.738 160 377.752 160H382Z" fill="#3F4443"/>
<path d="M510 235V272.624H505.752C489.663 272.624 474.119 278.01 461.703 287.794L461.702 287.794C442.606 302.842 418.886 311 394.491 311H383V273.376H394.491C410.58 273.376 426.124 267.99 438.54 258.205L439.439 257.505C458.378 242.904 481.738 235 505.752 235H510Z" fill="#3F4443"/>
<path d="M510 160V197.624H505.719C489.503 197.624 473.837 203.01 461.323 212.794L461.322 212.794C442.076 227.842 418.168 236 393.581 236H382V198.376H393.581C409.797 198.376 425.463 192.99 437.977 183.205L438.883 182.505C457.971 167.904 481.516 160 505.719 160H510Z" fill="#3F4443"/>
<path d="M127 376V402.592H122.752C105.713 402.592 89.221 408.21 75.9301 418.465L75.3001 418.956C57.1854 433.244 34.6657 441 11.4907 441H0V414.408H11.4907C28.8002 414.408 45.5453 408.61 58.9427 398.044C77.0576 383.757 99.577 376 122.752 376H127Z" fill="#3F4443"/>
<path d="M127 311V337.592H122.752C105.713 337.592 89.221 343.21 75.9301 353.465L75.3001 353.956C57.1854 368.244 34.6657 376 11.4907 376H0V349.408H11.4907C28.8002 349.408 45.5453 343.61 58.9427 333.044C77.0576 318.757 99.577 311 122.752 311H127Z" fill="#3F4443"/>
<path d="M255 376V402.592H250.752C233.713 402.592 217.221 408.21 203.93 418.465L203.3 418.956C185.185 433.244 162.666 441 139.491 441H128V414.408H139.491C156.8 414.408 173.545 408.61 186.943 398.044C205.058 383.757 227.577 376 250.752 376H255Z" fill="#3F4443"/>
<path d="M255 311V337.592H250.719C233.545 337.592 216.924 343.21 203.528 353.465L202.893 353.956C184.636 368.244 161.939 376 138.581 376H127V349.408H138.581C156.027 349.408 172.904 343.61 186.407 333.044C204.664 318.757 227.361 311 250.719 311H255Z" fill="#3F4443"/>
<path d="M383 376V402.592H378.719C361.545 402.592 344.924 408.21 331.528 418.465L330.893 418.956C312.636 433.244 289.939 441 266.581 441H255V414.408H266.581C284.027 414.408 300.904 408.61 314.407 398.044C332.664 383.757 355.361 376 378.719 376H383Z" fill="#3F4443"/>
<path d="M383 311V337.592H378.719C361.545 337.592 344.924 343.21 331.528 353.465L330.893 353.956C312.636 368.244 289.939 376 266.581 376H255V349.408H266.581C284.027 349.408 300.904 343.61 314.407 333.044C332.664 318.757 355.361 311 378.719 311H383Z" fill="#3F4443"/>
<path d="M510 376V402.592H505.752C488.713 402.592 472.221 408.21 458.93 418.465L458.3 418.956C440.185 433.244 417.666 441 394.491 441H383V414.408H394.491C411.8 414.408 428.545 408.61 441.943 398.044C460.058 383.757 482.577 376 505.752 376H510Z" fill="#3F4443"/>
<path d="M510 311V337.592H505.752C488.713 337.592 472.221 343.21 458.93 353.465L458.3 353.956C440.185 368.244 417.666 376 394.491 376H383V349.408H394.491C411.8 349.408 428.545 343.61 441.943 333.044C460.058 318.757 482.577 311 505.752 311H510Z" fill="#3F4443"/>
<path d="M128 504V523.471H123.719C105.475 523.471 87.8117 529.552 73.6664 540.656C56.0512 554.484 34.1403 562 11.5812 562H0V542.529H11.5812C29.8252 542.529 47.4878 536.448 61.6327 525.344V525.343C79.2482 511.515 101.159 504 123.719 504H128Z" fill="#3F4443"/>
<path d="M128 440V459.471H123.719C105.475 459.471 87.8117 465.552 73.6664 476.656C56.0512 490.484 34.1403 498 11.5812 498H0V478.529H11.5812C29.8252 478.529 47.4878 472.448 61.6327 461.344V461.343C79.2482 447.515 101.159 440 123.719 440H128Z" fill="#3F4443"/>
<path d="M256 504V523.471H251.719C233.475 523.471 215.812 529.552 201.666 540.656C184.051 554.484 162.14 562 139.581 562H128V542.529H139.581C157.825 542.529 175.488 536.448 189.633 525.344V525.343C207.248 511.515 229.159 504 251.719 504H256Z" fill="#3F4443"/>
<path d="M256 440V459.427H251.719C233.467 459.427 215.796 465.518 201.645 476.64L201.644 476.639C184.035 490.478 162.132 498 139.581 498H128V478.573H139.581C157.833 478.573 175.503 472.482 189.654 461.36L190.483 460.716C207.949 447.288 229.52 440 251.719 440H256Z" fill="#3F4443"/>
<path d="M383 504V523.471H378.752C360.65 523.471 343.126 529.552 329.091 540.656C311.613 554.484 289.874 562 267.491 562H256V542.529H267.491C285.592 542.529 303.117 536.448 317.151 525.344V525.343C334.629 511.515 356.369 504 378.752 504H383Z" fill="#3F4443"/>
<path d="M383 440V459.471H378.752C360.65 459.471 343.126 465.552 329.091 476.656C311.613 490.484 289.874 498 267.491 498H256V478.529H267.491C285.592 478.529 303.117 472.448 317.151 461.344V461.343C334.629 447.515 356.369 440 378.752 440H383Z" fill="#3F4443"/>
<path d="M511 504V523.471H506.719C488.475 523.471 470.812 529.552 456.666 540.656C439.051 554.484 417.14 562 394.581 562H383V542.529H394.581C412.825 542.529 430.488 536.448 444.633 525.344V525.343C462.248 511.515 484.159 504 506.719 504H511Z" fill="#3F4443"/>
<path d="M511 440V459.471H506.719C488.475 459.471 470.812 465.552 456.666 476.656C439.051 490.484 417.14 498 394.581 498H383V478.529H394.581C412.825 478.529 430.488 472.448 444.633 461.344V461.343C462.248 447.515 484.159 440 506.719 440H511Z" fill="#3F4443"/>
<path d="M127 80V122.367H122.719C106.999 122.367 91.8213 127.624 79.706 137.159C60.0607 152.623 35.6645 161 10.5812 161H-1V118.633H10.5812C26.3009 118.633 41.4783 113.376 53.593 103.841L54.5174 103.121C74.0012 88.1175 98.0269 80.0001 122.719 80H127Z" fill="#3F4443"/>
<path d="M126 0V42.3671H121.752C106.155 42.3671 91.0961 47.6236 79.0755 57.1594C59.5836 72.6228 35.3781 81 10.4907 81H-1V38.6329H10.4907C26.0876 38.6329 41.1465 33.3765 53.1665 23.8406L54.0837 23.1206C73.4153 8.11755 97.2533 6.59017e-05 121.752 0H126Z" fill="#3F4443"/>
<path d="M254 80V122.367H249.752C234.155 122.367 219.096 127.624 207.076 137.159C187.584 152.623 163.378 161 138.491 161H127V118.633H138.491C154.088 118.633 169.146 113.376 181.167 103.841L182.084 103.121C201.415 88.1175 225.253 80.0001 249.752 80H254Z" fill="#3F4443"/>
<path d="M254 0V42.3671H249.752C234.155 42.3671 219.096 47.6236 207.076 57.1594C187.584 72.6228 163.378 81 138.491 81H127V38.6329H138.491C154.088 38.6329 169.146 33.3765 181.167 23.8406L182.084 23.1206C201.415 8.11755 225.253 6.59017e-05 249.752 0H254Z" fill="#3F4443"/>
<path d="M382 80V122.367H377.719C361.999 122.367 346.821 127.624 334.706 137.159C315.061 152.623 290.665 161 265.581 161H254V118.633H265.581C281.301 118.633 296.478 113.376 308.593 103.841L309.517 103.121C329.001 88.1175 353.027 80.0001 377.719 80H382Z" fill="#3F4443"/>
<path d="M382 0V42.3671H377.719C361.999 42.3671 346.821 47.6236 334.706 57.1594C315.061 72.6228 290.665 81 265.581 81H254V38.6329H265.581C281.301 38.6329 296.478 33.3765 308.593 23.8406L309.517 23.1206C329.001 8.11755 353.027 6.59017e-05 377.719 0H382Z" fill="#3F4443"/>
<path d="M510 80V122.367H505.719C489.999 122.367 474.821 127.624 462.706 137.159C443.061 152.623 418.665 161 393.581 161H382V118.633H393.581C409.301 118.633 424.478 113.376 436.593 103.841L437.517 103.121C457.001 88.1175 481.027 80.0001 505.719 80H510Z" fill="#3F4443"/>
<path d="M510 0V42.3671H505.719C489.999 42.3671 474.821 47.6236 462.706 57.1594C443.061 72.6228 418.665 81 393.581 81H382V38.6329H393.581C409.301 38.6329 424.478 33.3765 436.593 23.8406L437.517 23.1206C457.001 8.11755 481.027 6.59017e-05 505.719 0H510Z" fill="#3F4443"/>
</g>
<defs>
<clipPath id="clip0_382_8951">
<rect width="510" height="562" fill="white"/>
</clipPath>
</defs>
</svg>
