<svg width="114" height="24" viewBox="0 0 114 24" fill="none" xmlns="http://www.w3.org/2000/svg">
<path fill-rule="evenodd" clip-rule="evenodd" d="M0 24H3.31064V16.9216C4.60774 18.3469 6.62126 19.1161 8.89119 19.1161C11.1611 19.1161 13.0088 18.4676 14.4265 17.1479C15.8443 15.8281 16.5683 14.1087 16.5683 11.9896C16.5683 9.8705 15.8443 8.17372 14.4265 6.85399C13.0012 5.53426 11.312 4.88585 8.92141 4.88585C6.53081 4.88585 4.53233 5.68509 3.2126 7.17827V4.88585H0V24ZM8.29543 16.3259C11.2139 16.3259 13.152 14.6064 13.152 11.9896C13.152 9.37277 11.2064 7.67599 8.29543 7.67599C5.38448 7.67599 3.31064 9.3954 3.31064 11.9896C3.31064 14.5838 5.30153 16.3259 8.29543 16.3259Z" fill="#3F4443"/>
<path fill-rule="evenodd" clip-rule="evenodd" d="M68.4675 13.0263L68.4682 13.0257L68.4607 13.0182L68.4675 13.0263ZM65.2255 15.7632L68.4675 13.0263L73.5963 19.0965H77.91L70.9569 11.0725L78.1965 4.88639H73.8603L65.2255 12.2716V0.00186694H61.9148V19.1183H65.2255V15.7632ZM35.6553 19.1258C33.0912 19.1258 31.0475 18.4697 29.5317 17.1726C28.0159 15.8755 27.2693 14.1636 27.2693 11.9917C27.2693 9.81984 28.0159 8.10043 29.5317 6.83349C31.0475 5.53639 33.0912 4.88783 35.6553 4.88783C38.2193 4.88783 40.2329 5.53639 41.7562 6.83349C42.8346 7.73845 43.5359 8.86964 43.8527 10.2271C43.913 10.4835 43.9055 10.7474 43.8225 10.9963C43.4907 12.0144 42.7667 12.5875 41.5677 12.776C41.2664 12.8288 40.5661 12.8515 40.5661 12.8515C40.6179 12.5821 40.6401 12.2907 40.6401 11.9993C40.6401 9.3372 38.7171 7.6932 35.6553 7.6932C32.5935 7.6932 30.678 9.32966 30.678 11.9993C30.678 14.6689 32.6388 16.3355 35.6553 16.3355C38.6718 16.3355 40.1891 15.0158 40.5661 12.8515C40.5661 12.8515 41.2664 12.8817 41.5677 12.9269C42.4651 13.0702 43.0986 13.4095 43.4982 14.0053C43.634 14.2013 43.6642 14.4577 43.5737 14.6764C43.189 15.6417 42.5858 16.4713 41.7562 17.1802C40.2404 18.4773 38.2193 19.1258 35.6553 19.1258ZM44.5917 14.0053C44.4635 14.2013 44.4334 14.4577 44.5163 14.6764C44.8858 15.6417 45.4816 16.4637 46.3112 17.1726C47.827 18.4697 49.9611 19.1183 52.5177 19.1183C55.7378 19.1183 58.5507 18.153 59.9609 16.5919L58.1284 14.5482C56.8539 15.687 55.8735 16.3582 52.8118 16.3582C49.7535 16.3582 47.7834 15.064 47.4783 12.8515H60.4801C60.4801 12.8515 60.4662 11.1156 60.3983 10.5952C60.2173 9.01908 59.5311 7.69182 58.1963 6.65111C56.7332 5.48221 54.7876 4.88645 52.397 4.88645C52.0576 4.88645 51.7861 4.89399 51.492 4.91661C49.3729 5.0599 47.6535 5.69337 46.3262 6.82456C45.2403 7.72952 44.554 8.86071 44.2448 10.2181C44.1845 10.4746 44.192 10.7385 44.275 10.9798C44.6068 12.0054 45.3308 12.6026 46.5299 12.7911C46.7674 12.8286 47.4783 12.8515 47.4783 12.8515C47.4783 12.8515 46.7681 12.8966 46.5223 12.9344C45.6324 13.0777 44.999 13.4171 44.5917 14.0053ZM47.5404 10.5123C47.9627 8.64202 49.833 7.47312 52.4196 7.47312C55.0138 7.47312 56.8087 8.6948 57.0047 10.5123H47.5404ZM92.5101 19.1191H95.8207V4.88864H92.5101V19.1191ZM89.112 14.1644C87.8375 15.5898 86.1935 16.359 84.3006 16.359C82.8301 16.359 81.7334 15.9517 80.8134 15.1524C79.8858 14.3304 79.4408 13.252 79.4408 11.985C79.4408 10.7181 79.8933 9.66983 80.8134 8.84783C81.7334 8.02582 82.5554 7.62613 84.3729 7.62613C86.1903 7.62613 87.6609 8.2219 88.958 9.49638L91.0771 7.43006C89.4783 5.76343 86.7408 4.88864 84.3201 4.88864C81.8993 4.88864 79.931 5.56736 78.3624 6.90971C76.7863 8.22944 76.0171 9.90361 76.0171 12.068C76.0171 14.2323 76.7411 15.9517 78.2116 17.2262C79.6822 18.4932 81.2916 19.1191 84.1046 19.1191C86.9175 19.1191 89.3835 18.101 91.0803 16.2308L89.112 14.1644ZM22.7285 8.72401C21.7104 9.69684 21.3107 10.7451 21.3107 12.5625V19.1162H18.0001V4.88548H21.2127V7.72856C21.4389 7.23083 21.7632 6.77835 22.2609 6.258C23.1584 5.28517 24.2066 4.88548 25.7978 4.88548H27.1954V7.84922H25.4962C23.9091 7.84922 23.3544 8.12825 22.7285 8.72401ZM113.846 4.88864V19.1191H110.611V16.8265C109.314 18.3197 107.421 19.1191 105.053 19.1191C102.685 19.1191 100.792 18.4705 99.3743 17.1734C97.949 15.8763 97.2552 14.1117 97.2552 11.9926C97.2552 9.87344 97.9792 8.15403 99.3969 6.85692C100.845 5.53719 102.738 4.88864 105.053 4.88864C107.368 4.88864 109.336 5.71064 110.633 7.20382V4.88864H113.846ZM105.52 16.3288C108.537 16.3288 110.505 14.6622 110.505 11.9926C110.505 9.37572 108.484 7.67892 105.52 7.67892C102.557 7.67892 100.664 9.37572 100.664 11.9926C100.664 14.6094 102.504 16.3288 105.52 16.3288ZM95.8207 1.65909C95.8207 2.57913 95.0741 3.31818 94.1616 3.31818C93.2416 3.31818 92.5025 2.57913 92.5025 1.65909C92.5025 0.739049 93.2416 0 94.1616 0C95.0816 0 95.8207 0.739049 95.8207 1.65909Z" fill="#3F4443"/>
</svg>
