<svg width="172" height="64" viewBox="0 0 172 64" fill="none" xmlns="http://www.w3.org/2000/svg">
<path d="M85.8666 0V32.5559H82.9946C73.8106 32.5559 64.4649 36.258 56.5825 43.7855C43.1588 56.6054 25.957 64 7.76879 64H0V31.4441H7.76879C16.9527 31.4441 26.2983 27.7421 34.1804 20.2145L34.1806 20.214C47.6045 7.3945 64.8064 0 82.9946 0H85.8666Z" fill="#C3AD8B"/>
<path d="M171.734 0V32.5559H168.862C159.678 32.5559 150.332 36.258 142.45 43.7855C129.026 56.6054 111.824 64 93.636 64H85.8672V31.4441H93.636C102.82 31.4441 112.166 27.7421 120.048 20.2145L120.048 20.214C133.472 7.3945 150.674 0 168.862 0H171.734Z" fill="#C3AD8B"/>
</svg>
