<svg width="1920" height="914" viewBox="0 0 1920 914" fill="none" xmlns="http://www.w3.org/2000/svg">
<path d="M169.468 157.094V208.879H163.602C141.383 208.879 119.918 216.293 102.771 229.76L102.771 229.759C76.3998 250.471 43.6428 261.7 9.9541 261.7H-5.91406V209.914H9.9541C32.1728 209.914 53.6381 202.501 70.7842 189.033L72.0254 188.069C98.1795 167.973 130.439 157.094 163.602 157.094H169.468Z" fill="#EEEEEE"/>
<path d="M169.194 53.5625V105.348H163.328C141.109 105.348 119.645 112.761 102.498 126.229L102.497 126.228C76.1263 146.94 43.3693 158.169 9.68066 158.169H-6.1875V106.383H9.68066C31.8994 106.383 53.3647 98.9693 70.5107 85.502L71.752 84.5381C97.9061 64.442 130.166 53.5626 163.328 53.5625H169.194Z" fill="#EEEEEE"/>
<path d="M344.897 157.094V208.879H339.031C316.813 208.879 295.348 216.293 278.201 229.76L278.2 229.759C251.829 250.471 219.072 261.7 185.384 261.7H169.516V209.914H185.384C207.603 209.914 229.068 202.501 246.214 189.033L247.455 188.069C273.609 167.973 305.869 157.094 339.031 157.094H344.897Z" fill="#EEEEEE"/>
<path d="M344.632 53.5625V105.348H338.766C316.547 105.348 295.082 112.761 277.936 126.229L277.935 126.228C251.564 146.94 218.807 158.169 185.118 158.169H169.25V106.383H185.118C207.337 106.383 228.802 98.9693 245.948 85.502L247.189 84.5381C273.344 64.442 305.603 53.5626 338.766 53.5625H344.632Z" fill="#EEEEEE"/>
<path d="M520.327 157.094V208.879H514.461C492.242 208.879 470.778 216.293 453.631 229.76L453.63 229.759C427.259 250.471 394.502 261.7 360.813 261.7H344.945V209.914H360.813C383.032 209.914 404.498 202.501 421.644 189.033L422.885 188.069C449.039 167.973 481.299 157.094 514.461 157.094H520.327Z" fill="#EEEEEE"/>
<path d="M520.054 53.5625V105.348H514.188C491.969 105.348 470.504 112.761 453.357 126.229L453.356 126.228C426.986 146.94 394.229 158.169 360.54 158.169H344.672V106.383H360.54C382.759 106.383 404.224 98.9693 421.37 85.502L422.611 84.5381C448.765 64.442 481.025 53.5626 514.188 53.5625H520.054Z" fill="#EEEEEE"/>
<path d="M695.757 157.094V208.879H689.891C667.672 208.879 646.207 216.293 629.061 229.76L629.06 229.759C602.689 250.471 569.932 261.7 536.243 261.7H520.375V209.914H536.243C558.462 209.914 579.927 202.501 597.073 189.033L598.314 188.069C624.469 167.973 656.728 157.094 689.891 157.094H695.757Z" fill="#EEEEEE"/>
<path d="M695.499 53.5625V105.348H689.633C667.414 105.348 645.949 112.761 628.803 126.229L628.802 126.228C602.431 146.94 569.674 158.169 535.985 158.169H520.117V106.383H535.985C558.204 106.383 579.669 98.9693 596.815 85.502L598.057 84.5381C624.211 64.442 656.47 53.5626 689.633 53.5625H695.499Z" fill="#EEEEEE"/>
<path d="M871.194 157.094V208.879H865.328C843.109 208.879 821.645 216.293 804.498 229.76L804.497 229.759C778.126 250.471 745.369 261.7 711.681 261.7H695.812V209.914H711.681C733.899 209.914 755.365 202.501 772.511 189.033L773.752 188.069C799.906 167.973 832.166 157.094 865.328 157.094H871.194Z" fill="#EEEEEE"/>
<path d="M870.913 53.5625V105.348H865.047C842.828 105.348 821.364 112.761 804.217 126.229L804.216 126.228C777.845 146.94 745.088 158.169 711.399 158.169H695.531V106.383H711.399C733.618 106.383 755.083 98.9693 772.229 85.502L773.471 84.5381C799.625 64.442 831.884 53.5626 865.047 53.5625H870.913Z" fill="#EEEEEE"/>
<path d="M1046.62 157.094V208.879H1040.76C1018.54 208.879 997.074 216.293 979.928 229.76L979.927 229.759C953.556 250.471 920.799 261.7 887.11 261.7H871.242V209.914H887.11C909.329 209.914 930.794 202.501 947.94 189.033L949.182 188.069C975.336 167.973 1007.6 157.094 1040.76 157.094H1046.62Z" fill="#EEEEEE"/>
<path d="M1046.36 53.5625V105.348H1040.49C1018.27 105.348 996.809 112.761 979.662 126.229L979.661 126.228C953.29 146.94 920.533 158.169 886.845 158.169H870.977V106.383H886.845C909.063 106.383 930.529 98.9693 947.675 85.502L948.916 84.5381C975.07 64.442 1007.33 53.5626 1040.49 53.5625H1046.36Z" fill="#EEEEEE"/>
<path d="M1222.05 157.094V208.879H1216.19C1193.97 208.879 1172.5 216.293 1155.36 229.76L1155.36 229.759C1128.99 250.471 1096.23 261.7 1062.54 261.7H1046.67V209.914H1062.54C1084.76 209.914 1106.22 202.501 1123.37 189.033L1124.61 188.069C1150.77 167.973 1183.03 157.094 1216.19 157.094H1222.05Z" fill="#EEEEEE"/>
<path d="M1221.79 53.5625V105.348H1215.92C1193.7 105.348 1172.24 112.761 1155.09 126.229L1155.09 126.228C1128.72 146.94 1095.96 158.169 1062.27 158.169H1046.41V106.383H1062.27C1084.49 106.383 1105.96 98.9693 1123.1 85.502L1124.35 84.5381C1150.5 64.442 1182.76 53.5626 1215.92 53.5625H1221.79Z" fill="#EEEEEE"/>
<path d="M1397.48 157.094V208.879H1391.62C1369.4 208.879 1347.93 216.293 1330.79 229.76L1330.79 229.759C1304.42 250.471 1271.66 261.7 1237.97 261.7H1222.1V209.914H1237.97C1260.19 209.914 1281.65 202.501 1298.8 189.033L1300.04 188.069C1326.2 167.973 1358.45 157.094 1391.62 157.094H1397.48Z" fill="#EEEEEE"/>
<path d="M1397.23 53.5625V105.348H1391.37C1369.15 105.348 1347.68 112.761 1330.54 126.229L1330.54 126.228C1304.17 146.94 1271.41 158.169 1237.72 158.169H1221.85V106.383H1237.72C1259.94 106.383 1281.4 98.9693 1298.55 85.502L1299.79 84.5381C1325.95 64.442 1358.2 53.5626 1391.37 53.5625H1397.23Z" fill="#EEEEEE"/>
<path d="M1572.93 157.094V208.879H1567.06C1544.84 208.879 1523.38 216.293 1506.23 229.76L1506.23 229.759C1479.86 250.471 1447.1 261.7 1413.42 261.7H1397.55V209.914H1413.42C1435.63 209.914 1457.1 202.501 1474.25 189.033L1475.49 188.069C1501.64 167.973 1533.9 157.094 1567.06 157.094H1572.93Z" fill="#EEEEEE"/>
<path d="M1572.66 53.5625V105.348H1566.79C1544.57 105.348 1523.11 112.761 1505.96 126.229L1505.96 126.228C1479.59 146.94 1446.83 158.169 1413.14 158.169H1397.27V106.383H1413.14C1435.36 106.383 1456.83 98.9693 1473.97 85.502L1475.21 84.5381C1501.37 64.442 1533.63 53.5626 1566.79 53.5625H1572.66Z" fill="#EEEEEE"/>
<path d="M1748.37 157.094V208.879H1742.5C1720.28 208.879 1698.82 216.293 1681.67 229.76L1681.67 229.759C1655.3 250.471 1622.54 261.7 1588.85 261.7H1572.98V209.914H1588.85C1611.07 209.914 1632.54 202.501 1649.68 189.033L1650.92 188.069C1677.08 167.973 1709.34 157.094 1742.5 157.094H1748.37Z" fill="#EEEEEE"/>
<path d="M1748.08 53.5625V105.348H1742.22C1720 105.348 1698.54 112.761 1681.39 126.229L1681.39 126.228C1655.02 146.94 1622.26 158.169 1588.57 158.169H1572.7V106.383H1588.57C1610.79 106.383 1632.26 98.9693 1649.4 85.502L1650.64 84.5381C1676.8 64.442 1709.06 53.5626 1742.22 53.5625H1748.08Z" fill="#EEEEEE"/>
<path d="M1923.8 157.094V208.879H1917.93C1895.71 208.879 1874.25 216.293 1857.1 229.76L1857.1 229.759C1830.73 250.471 1797.97 261.7 1764.28 261.7H1748.41V209.914H1764.28C1786.5 209.914 1807.97 202.501 1825.11 189.033L1826.35 188.069C1852.51 167.973 1884.77 157.094 1917.93 157.094H1923.8Z" fill="#EEEEEE"/>
<path d="M1923.52 53.5625V105.348H1917.66C1895.44 105.348 1873.97 112.761 1856.83 126.229L1856.83 126.228C1830.45 146.94 1797.7 158.169 1764.01 158.169H1748.14V106.383H1764.01C1786.23 106.383 1807.69 98.9693 1824.84 85.502L1826.08 84.5381C1852.23 64.442 1884.49 53.5626 1917.66 53.5625H1923.52Z" fill="#EEEEEE"/>
<path d="M169.757 349.998V386.568H163.891C140.36 386.568 117.586 394.295 99.2314 408.397L98.3613 409.073C73.3457 428.722 42.2469 439.389 10.2432 439.389H-5.625V402.818H10.2432C34.1469 402.818 57.2712 394.845 75.7725 380.313C100.788 360.666 131.887 349.998 163.891 349.998H169.757Z" fill="#EEEEEE"/>
<path d="M169.483 261.365V297.936H163.617C140.087 297.936 117.312 305.662 98.958 319.765L98.0879 320.44C73.0723 340.089 41.9735 350.756 9.96973 350.756H-5.89844V314.186H9.96973C33.8735 314.186 56.9978 306.212 75.499 291.681C100.515 272.033 131.613 261.365 163.617 261.365H169.483Z" fill="#EEEEEE"/>
<path d="M345.187 349.998V386.568H339.32C315.79 386.568 293.015 394.295 274.661 408.397L273.791 409.073C248.775 428.722 217.677 439.389 185.673 439.389H169.805V402.818H185.673C209.577 402.818 232.701 394.845 251.202 380.313C276.218 360.666 307.317 349.998 339.32 349.998H345.187Z" fill="#EEEEEE"/>
<path d="M344.905 261.365V297.936H339.039C315.509 297.936 292.734 305.662 274.38 319.765L273.51 320.44C248.494 340.089 217.395 350.756 185.392 350.756H169.523V314.186H185.392C209.295 314.186 232.42 306.212 250.921 291.681C275.937 272.033 307.035 261.365 339.039 261.365H344.905Z" fill="#EEEEEE"/>
<path d="M520.616 349.998V386.568H514.75C491.22 386.568 468.445 394.295 450.091 408.397L449.221 409.073C424.205 428.722 393.106 439.389 361.103 439.389H345.234V402.818H361.103C385.006 402.818 408.131 394.845 426.632 380.313C451.648 360.666 482.746 349.998 514.75 349.998H520.616Z" fill="#EEEEEE"/>
<path d="M520.343 261.365V297.936H514.477C490.946 297.936 468.171 305.662 449.817 319.765L448.947 320.44C423.932 340.089 392.833 350.756 360.829 350.756H344.961V314.186H360.829C384.733 314.186 407.857 306.212 426.358 291.681C451.374 272.033 482.473 261.365 514.477 261.365H520.343Z" fill="#EEEEEE"/>
<path d="M696.038 349.998V386.568H690.172C666.641 386.568 643.867 394.295 625.513 408.397L624.643 409.073C599.627 428.722 568.528 439.389 536.524 439.389H520.656V402.818H536.524C560.428 402.818 583.552 394.845 602.054 380.313C627.07 360.666 658.168 349.998 690.172 349.998H696.038Z" fill="#EEEEEE"/>
<path d="M695.772 261.365V297.936H689.906C666.376 297.936 643.601 305.662 625.247 319.765L624.377 320.44C599.361 340.089 568.263 350.756 536.259 350.756H520.391V314.186H536.259C560.163 314.186 583.287 306.212 601.788 291.681C626.804 272.033 657.902 261.365 689.906 261.365H695.772Z" fill="#EEEEEE"/>
<path d="M871.491 349.998V386.568H865.625C842.095 386.568 819.32 394.295 800.966 408.397L800.096 409.073C775.08 428.722 743.981 439.389 711.978 439.389H696.109V402.818H711.978C735.881 402.818 759.006 394.845 777.507 380.313C802.523 360.666 833.621 349.998 865.625 349.998H871.491Z" fill="#EEEEEE"/>
<path d="M871.21 261.365V297.936H865.344C841.813 297.936 819.039 305.662 800.685 319.765L799.814 320.44C774.799 340.089 743.7 350.756 711.696 350.756H695.828V314.186H711.696C735.6 314.186 758.724 306.212 777.226 291.681C802.242 272.033 833.34 261.365 865.344 261.365H871.21Z" fill="#EEEEEE"/>
<path d="M1046.91 349.998V386.568H1041.04C1017.51 386.568 994.734 394.295 976.38 408.397L975.51 409.073C950.494 428.722 919.395 439.389 887.392 439.389H871.523V402.818H887.392C911.295 402.818 934.42 394.845 952.921 380.313C977.937 360.666 1009.04 349.998 1041.04 349.998H1046.91Z" fill="#EEEEEE"/>
<path d="M1046.63 261.365V297.936H1040.77C1017.24 297.936 994.461 305.662 976.106 319.765L975.236 320.44C950.221 340.089 919.122 350.756 887.118 350.756H871.25V314.186H887.118C911.022 314.186 934.146 306.212 952.647 291.681C977.663 272.033 1008.76 261.365 1040.77 261.365H1046.63Z" fill="#EEEEEE"/>
<path d="M1222.35 349.998V386.568H1216.48C1192.95 386.568 1170.18 394.295 1151.83 408.397L1150.96 409.073C1125.94 428.722 1094.84 439.389 1062.84 439.389H1046.97V402.818H1062.84C1086.74 402.818 1109.86 394.845 1128.37 380.313C1153.38 360.666 1184.48 349.998 1216.48 349.998H1222.35Z" fill="#EEEEEE"/>
<path d="M1222.07 261.365V297.936H1216.2C1192.67 297.936 1169.9 305.662 1151.54 319.765L1150.67 320.44C1125.66 340.089 1094.56 350.756 1062.56 350.756H1046.69V314.186H1062.56C1086.46 314.186 1109.58 306.212 1128.08 291.681C1153.1 272.033 1184.2 261.365 1216.2 261.365H1222.07Z" fill="#EEEEEE"/>
<path d="M1397.78 349.998V386.568H1391.91C1368.38 386.568 1345.61 394.295 1327.25 408.397L1326.38 409.073C1301.37 428.722 1270.27 439.389 1238.27 439.389H1222.4V402.818H1238.27C1262.17 402.818 1285.29 394.845 1303.8 380.313C1328.81 360.666 1359.91 349.998 1391.91 349.998H1397.78Z" fill="#EEEEEE"/>
<path d="M1397.49 261.365V297.936H1391.62C1368.09 297.936 1345.32 305.662 1326.97 319.765L1326.1 320.44C1301.08 340.089 1269.98 350.756 1237.98 350.756H1222.11V314.186H1237.98C1261.88 314.186 1285.01 306.212 1303.51 291.681C1328.52 272.033 1359.62 261.365 1391.62 261.365H1397.49Z" fill="#EEEEEE"/>
<path d="M1573.22 349.998V386.568H1567.35C1543.82 386.568 1521.05 394.295 1502.69 408.397L1501.82 409.073C1476.81 428.722 1445.71 439.389 1413.7 439.389H1397.84V402.818H1413.7C1437.61 402.818 1460.73 394.845 1479.23 380.313C1504.25 360.666 1535.35 349.998 1567.35 349.998H1573.22Z" fill="#EEEEEE"/>
<path d="M1572.94 261.365V297.936H1567.07C1543.54 297.936 1520.77 305.662 1502.41 319.765L1501.54 320.44C1476.53 340.089 1445.43 350.756 1413.42 350.756H1397.55V314.186H1413.42C1437.33 314.186 1460.45 306.212 1478.95 291.681C1503.97 272.033 1535.07 261.365 1567.07 261.365H1572.94Z" fill="#EEEEEE"/>
<path d="M1748.64 349.998V386.568H1742.77C1719.24 386.568 1696.47 394.295 1678.11 408.397L1677.24 409.073C1652.23 428.722 1621.13 439.389 1589.13 439.389H1573.26V402.818H1589.13C1613.03 402.818 1636.15 394.845 1654.66 380.313C1679.67 360.666 1710.77 349.998 1742.77 349.998H1748.64Z" fill="#EEEEEE"/>
<path d="M1748.37 261.365V297.936H1742.51C1718.98 297.936 1696.2 305.662 1677.85 319.765L1676.98 320.44C1651.96 340.089 1620.86 350.756 1588.86 350.756H1572.99V314.186H1588.86C1612.76 314.186 1635.89 306.212 1654.39 291.681C1679.41 272.033 1710.5 261.365 1742.51 261.365H1748.37Z" fill="#EEEEEE"/>
<path d="M1924.07 349.998V386.568H1918.2C1894.67 386.568 1871.9 394.295 1853.54 408.397L1852.67 409.073C1827.66 428.722 1796.56 439.389 1764.56 439.389H1748.69V402.818H1764.56C1788.46 402.818 1811.58 394.845 1830.08 380.313C1855.1 360.666 1886.2 349.998 1918.2 349.998H1924.07Z" fill="#EEEEEE"/>
<path d="M1923.8 261.365V297.936H1917.94C1894.41 297.936 1871.63 305.662 1853.28 319.765L1852.41 320.44C1827.39 340.089 1796.29 350.756 1764.29 350.756H1748.42V314.186H1764.29C1788.19 314.186 1811.32 306.212 1829.82 291.681C1854.84 272.033 1885.93 261.365 1917.94 261.365H1923.8Z" fill="#EEEEEE"/>
<path d="M170.577 527.108V553.802H164.711C139.713 553.802 115.512 562.139 96.1309 577.361C71.995 596.319 41.9734 606.622 11.0635 606.622H-4.80469V579.929H11.0635C36.0609 579.929 60.2617 571.592 79.6426 556.369V556.368C103.779 537.411 133.801 527.108 164.711 527.108H170.577Z" fill="#EEEEEE"/>
<path d="M170.304 438.483V465.177H164.438C139.44 465.177 115.239 473.514 95.8574 488.736C71.7215 507.694 41.6999 517.997 10.79 517.997H-5.07812V491.304H10.79C35.7875 491.304 59.9883 482.967 79.3691 467.744V467.743C103.505 448.786 133.528 438.483 164.438 438.483H170.304Z" fill="#EEEEEE"/>
<path d="M345.999 527.108V553.802H340.133C315.135 553.802 290.934 562.139 271.553 577.361C247.417 596.319 217.395 606.622 186.485 606.622H170.617V579.929H186.485C211.483 579.929 235.684 571.592 255.064 556.369V556.368C279.201 537.411 309.223 527.108 340.133 527.108H345.999Z" fill="#EEEEEE"/>
<path d="M345.741 438.483V465.177H339.875C314.877 465.177 290.676 473.514 271.295 488.736C247.159 507.694 217.137 517.997 186.228 517.997H170.359V491.304H186.228C211.225 491.304 235.426 482.967 254.807 467.744V467.743C278.943 448.786 308.965 438.483 339.875 438.483H345.741Z" fill="#EEEEEE"/>
<path d="M521.429 527.108V553.802H515.562C490.565 553.802 466.364 562.139 446.982 577.361C422.847 596.319 392.825 606.622 361.915 606.622H346.047V579.929H361.915C386.912 579.929 411.113 571.592 430.494 556.369V556.368C454.63 537.411 484.653 527.108 515.562 527.108H521.429Z" fill="#EEEEEE"/>
<path d="M521.163 438.483V465.177H515.297C490.299 465.177 466.098 473.514 446.717 488.736C422.581 507.694 392.559 517.997 361.649 517.997H345.781V491.304H361.649C386.647 491.304 410.848 482.967 430.229 467.744V467.743C454.365 448.786 484.387 438.483 515.297 438.483H521.163Z" fill="#EEEEEE"/>
<path d="M696.858 527.108V553.802H690.992C665.995 553.802 641.794 562.139 622.412 577.361C598.276 596.319 568.255 606.622 537.345 606.622H521.477V579.929H537.345C562.342 579.929 586.543 571.592 605.924 556.369V556.368C630.06 537.411 660.082 527.108 690.992 527.108H696.858Z" fill="#EEEEEE"/>
<path d="M696.601 438.483V465.177H690.734C665.737 465.177 641.536 473.514 622.154 488.736C598.018 507.694 567.997 517.997 537.087 517.997H521.219V491.304H537.087C562.084 491.304 586.285 482.967 605.666 467.744V467.743C629.802 448.786 659.824 438.483 690.734 438.483H696.601Z" fill="#EEEEEE"/>
<path d="M872.304 527.108V553.802H866.438C841.44 553.802 817.239 562.139 797.857 577.361C773.722 596.319 743.7 606.622 712.79 606.622H696.922V579.929H712.79C737.787 579.929 761.988 571.592 781.369 556.369V556.368C805.505 537.411 835.528 527.108 866.438 527.108H872.304Z" fill="#EEEEEE"/>
<path d="M872.03 438.483V465.177H866.164C841.167 465.177 816.965 473.514 797.584 488.736C773.448 507.694 743.427 517.997 712.517 517.997H696.648V491.304H712.517C737.514 491.304 761.715 482.967 781.096 467.744V467.743C805.232 448.786 835.254 438.483 866.164 438.483H872.03Z" fill="#EEEEEE"/>
<path d="M1047.73 527.108V553.802H1041.87C1016.87 553.802 992.669 562.139 973.287 577.361C949.151 596.319 919.13 606.622 888.22 606.622H872.352V579.929H888.22C913.217 579.929 937.418 571.592 956.799 556.369V556.368C980.935 537.411 1010.96 527.108 1041.87 527.108H1047.73Z" fill="#EEEEEE"/>
<path d="M1047.46 438.483V465.177H1041.59C1016.6 465.177 992.395 473.514 973.014 488.736C948.878 507.694 918.856 517.997 887.946 517.997H872.078V491.304H887.946C912.944 491.304 937.145 482.967 956.525 467.744V467.743C980.662 448.786 1010.68 438.483 1041.59 438.483H1047.46Z" fill="#EEEEEE"/>
<path d="M1223.16 527.108V553.802H1217.3C1192.3 553.802 1168.1 562.139 1148.72 577.361C1124.58 596.319 1094.56 606.622 1063.65 606.622H1047.78V579.929H1063.65C1088.65 579.929 1112.85 571.592 1132.23 556.369V556.368C1156.36 537.411 1186.39 527.108 1217.3 527.108H1223.16Z" fill="#EEEEEE"/>
<path d="M1222.89 438.483V465.177H1217.02C1192.03 465.177 1167.82 473.514 1148.44 488.736C1124.31 507.694 1094.29 517.997 1063.38 517.997H1047.51V491.304H1063.38C1088.37 491.304 1112.57 482.967 1131.96 467.744V467.743C1156.09 448.786 1186.11 438.483 1217.02 438.483H1222.89Z" fill="#EEEEEE"/>
<path d="M1398.59 527.108V553.802H1392.73C1367.73 553.802 1343.53 562.139 1324.15 577.361C1300.01 596.319 1269.99 606.622 1239.08 606.622H1223.21V579.929H1239.08C1264.08 579.929 1288.28 571.592 1307.66 556.369V556.368C1331.79 537.411 1361.82 527.108 1392.73 527.108H1398.59Z" fill="#EEEEEE"/>
<path d="M1398.32 438.483V465.177H1392.45C1367.46 465.177 1343.25 473.514 1323.87 488.736C1299.74 507.694 1269.72 517.997 1238.81 517.997H1222.94V491.304H1238.81C1263.8 491.304 1288 482.967 1307.38 467.744V467.743C1331.52 448.786 1361.54 438.483 1392.45 438.483H1398.32Z" fill="#EEEEEE"/>
<path d="M1574.05 527.108V553.802H1568.18C1543.18 553.802 1518.98 562.139 1499.6 577.361C1475.46 596.319 1445.44 606.622 1414.53 606.622H1398.66V579.929H1414.53C1439.53 579.929 1463.73 571.592 1483.11 556.369V556.368C1507.25 537.411 1537.27 527.108 1568.18 527.108H1574.05Z" fill="#EEEEEE"/>
<path d="M1573.75 438.483V465.177H1567.88C1542.89 465.177 1518.68 473.514 1499.3 488.736C1475.17 507.694 1445.15 517.997 1414.24 517.997H1398.37V491.304H1414.24C1439.23 491.304 1463.43 482.967 1482.81 467.744V467.743C1506.95 448.786 1536.97 438.483 1567.88 438.483H1573.75Z" fill="#EEEEEE"/>
<path d="M1749.46 527.108V553.802H1743.59C1718.6 553.802 1694.4 562.139 1675.01 577.361C1650.88 596.319 1620.86 606.622 1589.95 606.622H1574.08V579.929H1589.95C1614.94 579.929 1639.14 571.592 1658.53 556.369V556.368C1682.66 537.411 1712.68 527.108 1743.59 527.108H1749.46Z" fill="#EEEEEE"/>
<path d="M1749.19 438.483V465.177H1743.32C1718.32 465.177 1694.12 473.514 1674.74 488.736C1650.6 507.694 1620.58 517.997 1589.67 517.997H1573.8V491.304H1589.67C1614.67 491.304 1638.87 482.967 1658.25 467.744V467.743C1682.39 448.786 1712.41 438.483 1743.32 438.483H1749.19Z" fill="#EEEEEE"/>
<path d="M1924.91 527.108V553.802H1919.04C1894.04 553.802 1869.84 562.139 1850.46 577.361C1826.32 596.319 1796.3 606.622 1765.39 606.622H1749.52V579.929H1765.39C1790.39 579.929 1814.59 571.592 1833.97 556.369V556.368C1858.11 537.411 1888.13 527.108 1919.04 527.108H1924.91Z" fill="#EEEEEE"/>
<path d="M1924.61 438.483V465.177H1918.74C1893.74 465.177 1869.54 473.514 1850.16 488.736C1826.03 507.694 1796 517.997 1765.09 517.997H1749.23V491.304H1765.09C1790.09 491.304 1814.29 482.967 1833.67 467.744V467.743C1857.81 448.786 1887.83 438.483 1918.74 438.483H1924.61Z" fill="#EEEEEE"/>
<path d="M171.108 695.002V711.018H165.242C139.062 711.018 113.697 719.748 93.3643 735.717C70.1793 753.927 41.3223 763.839 11.5947 763.839H-4.27344V747.822H11.5947C37.7748 747.822 63.1398 739.092 83.4717 723.122L84.5625 722.274C107.559 704.605 135.979 695.002 165.242 695.002H171.108Z" fill="#EEEEEE"/>
<path d="M170.835 606.385V622.4H164.969C138.789 622.4 113.423 631.13 93.0908 647.1C69.9059 665.31 41.0488 675.222 11.3213 675.222H-4.54688V659.205H11.3213C37.5013 659.205 62.8663 650.475 83.1982 634.505L84.2891 633.657C107.285 615.987 135.706 606.385 164.969 606.385H170.835Z" fill="#EEEEEE"/>
<path d="M346.554 695.002V711.018H340.688C314.508 711.018 289.142 719.748 268.81 735.717C245.625 753.927 216.768 763.839 187.04 763.839H171.172V747.822H187.04C213.22 747.822 238.585 739.092 258.917 723.122L260.008 722.274C283.004 704.605 311.424 695.002 340.688 695.002H346.554Z" fill="#EEEEEE"/>
<path d="M346.288 606.385V622.4H340.422C314.242 622.4 288.876 631.13 268.544 647.1C245.359 665.31 216.502 675.222 186.774 675.222H170.906V659.205H186.774C212.954 659.205 238.319 650.475 258.651 634.505L259.742 633.657C282.739 615.987 311.159 606.385 340.422 606.385H346.288Z" fill="#EEEEEE"/>
<path d="M521.983 695.002V711.018H516.117C489.937 711.018 464.572 719.748 444.239 735.717C421.054 753.927 392.197 763.839 362.47 763.839H346.602V747.822H362.47C388.65 747.822 414.015 739.092 434.347 723.122L435.438 722.274C458.434 704.605 486.854 695.002 516.117 695.002H521.983Z" fill="#EEEEEE"/>
<path d="M521.702 606.385V622.4H515.836C489.656 622.4 464.29 631.13 443.958 647.1C420.773 665.31 391.916 675.222 362.188 675.222H346.32V659.205H362.188C388.369 659.205 413.734 650.475 434.065 634.505L435.156 633.657C458.153 615.987 486.573 606.385 515.836 606.385H521.702Z" fill="#EEEEEE"/>
<path d="M697.421 695.002V711.018H691.555C665.375 711.018 640.009 719.748 619.677 735.717C596.492 753.927 567.635 763.839 537.907 763.839H522.039V747.822H537.907C564.087 747.822 589.452 739.092 609.784 723.122L610.875 722.274C633.871 704.605 662.292 695.002 691.555 695.002H697.421Z" fill="#EEEEEE"/>
<path d="M697.147 606.385V622.4H691.281C665.101 622.4 639.736 631.13 619.403 647.1C596.218 665.31 567.361 675.222 537.634 675.222H521.766V659.205H537.634C563.814 659.205 589.179 650.475 609.511 634.505L610.602 633.657C633.598 615.987 662.018 606.385 691.281 606.385H697.147Z" fill="#EEEEEE"/>
<path d="M872.851 695.002V711.018H866.984C840.804 711.018 815.439 719.748 795.106 735.717C771.922 753.927 743.064 763.839 713.337 763.839H697.469V747.822H713.337C739.517 747.822 764.882 739.092 785.214 723.122L786.305 722.274C809.301 704.605 837.721 695.002 866.984 695.002H872.851Z" fill="#EEEEEE"/>
<path d="M872.569 606.385V622.4H866.703C840.523 622.4 815.158 631.13 794.825 647.1C771.64 665.31 742.783 675.222 713.056 675.222H697.188V659.205H713.056C739.236 659.205 764.601 650.475 784.933 634.505L786.023 633.657C809.02 615.987 837.44 606.385 866.703 606.385H872.569Z" fill="#EEEEEE"/>
<path d="M1048.29 695.002V711.018H1042.42C1016.24 711.018 990.876 719.748 970.544 735.717C947.359 753.927 918.502 763.839 888.774 763.839H872.906V747.822H888.774C914.954 747.822 940.319 739.092 960.651 723.122L961.742 722.274C984.739 704.605 1013.16 695.002 1042.42 695.002H1048.29Z" fill="#EEEEEE"/>
<path d="M1048.01 606.385V622.4H1042.14C1015.96 622.4 990.595 631.13 970.263 647.1C947.078 665.31 918.221 675.222 888.493 675.222H872.625V659.205H888.493C914.673 659.205 940.038 650.475 960.37 634.505L961.461 633.657C984.457 615.987 1012.88 606.385 1042.14 606.385H1048.01Z" fill="#EEEEEE"/>
<path d="M1223.72 695.002V711.018H1217.85C1191.67 711.018 1166.31 719.748 1145.97 735.717C1122.79 753.927 1093.93 763.839 1064.2 763.839H1048.34V747.822H1064.2C1090.38 747.822 1115.75 739.092 1136.08 723.122L1137.17 722.274C1160.17 704.605 1188.59 695.002 1217.85 695.002H1223.72Z" fill="#EEEEEE"/>
<path d="M1223.45 606.385V622.4H1217.59C1191.41 622.4 1166.04 631.13 1145.71 647.1C1122.52 665.31 1093.67 675.222 1063.94 675.222H1048.07V659.205H1063.94C1090.12 659.205 1115.48 650.475 1135.82 634.505L1136.91 633.657C1159.9 615.987 1188.32 606.385 1217.59 606.385H1223.45Z" fill="#EEEEEE"/>
<path d="M1399.14 695.002V711.018H1393.27C1367.09 711.018 1341.73 719.748 1321.4 735.717C1298.21 753.927 1269.35 763.839 1239.63 763.839H1223.76V747.822H1239.63C1265.81 747.822 1291.17 739.092 1311.5 723.122L1312.59 722.274C1335.59 704.605 1364.01 695.002 1393.27 695.002H1399.14Z" fill="#EEEEEE"/>
<path d="M1398.87 606.385V622.4H1393.01C1366.83 622.4 1341.46 631.13 1321.13 647.1C1297.94 665.31 1269.09 675.222 1239.36 675.222H1223.49V659.205H1239.36C1265.54 659.205 1290.91 650.475 1311.24 634.505L1312.33 633.657C1335.32 615.987 1363.74 606.385 1393.01 606.385H1398.87Z" fill="#EEEEEE"/>
<path d="M1574.58 695.002V711.018H1568.72C1542.54 711.018 1517.17 719.748 1496.84 735.717C1473.66 753.927 1444.8 763.839 1415.07 763.839H1399.2V747.822H1415.07C1441.25 747.822 1466.62 739.092 1486.95 723.122L1488.04 722.274C1511.04 704.605 1539.46 695.002 1568.72 695.002H1574.58Z" fill="#EEEEEE"/>
<path d="M1574.3 606.385V622.4H1568.44C1542.26 622.4 1516.89 631.13 1496.56 647.1C1473.37 665.31 1444.52 675.222 1414.79 675.222H1398.92V659.205H1414.79C1440.97 659.205 1466.34 650.475 1486.67 634.505L1487.76 633.657C1510.75 615.987 1539.17 606.385 1568.44 606.385H1574.3Z" fill="#EEEEEE"/>
<path d="M1750.01 695.002V711.018H1744.15C1717.97 711.018 1692.6 719.748 1672.27 735.717C1649.09 753.927 1620.23 763.839 1590.5 763.839H1574.63V747.822H1590.5C1616.68 747.822 1642.05 739.092 1662.38 723.122L1663.47 722.274C1686.47 704.605 1714.89 695.002 1744.15 695.002H1750.01Z" fill="#EEEEEE"/>
<path d="M1749.74 606.385V622.4H1743.88C1717.7 622.4 1692.33 631.13 1672 647.1C1648.81 665.31 1619.96 675.222 1590.23 675.222H1574.36V659.205H1590.23C1616.41 659.205 1641.77 650.475 1662.1 634.505L1663.2 633.657C1686.19 615.987 1714.61 606.385 1743.88 606.385H1749.74Z" fill="#EEEEEE"/>
<path d="M1925.45 695.002V711.018H1919.59C1893.41 711.018 1868.04 719.748 1847.71 735.717C1824.52 753.927 1795.67 763.839 1765.94 763.839H1750.07V747.822H1765.94C1792.12 747.822 1817.48 739.092 1837.82 723.122L1838.91 722.274C1861.9 704.605 1890.32 695.002 1919.59 695.002H1925.45Z" fill="#EEEEEE"/>
<path d="M1925.18 606.385V622.4H1919.31C1893.13 622.4 1867.77 631.13 1847.43 647.1C1824.25 665.31 1795.39 675.222 1765.67 675.222H1749.8V659.205H1765.67C1791.85 659.205 1817.21 650.475 1837.54 634.505L1838.63 633.657C1861.63 615.987 1890.05 606.385 1919.31 606.385H1925.18Z" fill="#EEEEEE"/>
<path d="M171.39 763.746V772.555H165.523C138.545 772.555 112.394 781.551 91.4199 798.024C68.877 815.731 40.8052 825.375 11.876 825.375H-3.99219V816.566H11.876C38.8541 816.566 65.0047 807.57 85.9785 791.097C108.522 773.391 136.594 763.746 165.523 763.746H171.39Z" fill="#EEEEEE"/>
<path d="M347.085 852.371V861.18H341.219C314.241 861.18 288.09 870.176 267.115 886.649C244.572 904.356 216.501 914 187.571 914H171.703V905.191H187.571C214.549 905.191 240.7 896.195 261.674 879.722C284.217 862.016 312.289 852.371 341.219 852.371H347.085Z" fill="#EEEEEE"/>
<path d="M346.827 763.746V772.555H340.961C313.983 772.555 287.832 781.551 266.857 798.024C244.314 815.731 216.243 825.375 187.313 825.375H171.445V816.566H187.313C214.292 816.566 240.442 807.57 261.416 791.097C283.959 773.391 312.032 763.746 340.961 763.746H346.827Z" fill="#EEEEEE"/>
<path d="M522.249 763.746V772.555H516.383C489.405 772.555 463.254 781.551 442.279 798.024C419.736 815.731 391.665 825.375 362.735 825.375H346.867V816.566H362.735C389.713 816.566 415.864 807.57 436.838 791.097C459.381 773.391 487.453 763.746 516.383 763.746H522.249Z" fill="#EEEEEE"/>
<path d="M697.679 763.746V772.555H691.812C664.834 772.555 638.683 781.551 617.709 798.024C595.166 815.731 567.094 825.375 538.165 825.375H522.297V816.566H538.165C565.143 816.566 591.294 807.57 612.268 791.097C634.811 773.391 662.883 763.746 691.812 763.746H697.679Z" fill="#EEEEEE"/>
<path d="M873.397 852.371V861.18H867.531C840.553 861.18 814.402 870.176 793.428 886.649C770.885 904.356 742.813 914 713.884 914H698.016V905.191H713.884C740.862 905.191 767.013 896.195 787.986 879.722C810.53 862.016 838.602 852.371 867.531 852.371H873.397Z" fill="#EEEEEE"/>
<path d="M873.108 763.746V772.555H867.242C840.264 772.555 814.113 781.551 793.139 798.024C770.596 815.731 742.524 825.375 713.595 825.375H697.727V816.566H713.595C740.573 816.566 766.723 807.57 787.697 791.097C810.241 773.391 838.313 763.746 867.242 763.746H873.108Z" fill="#EEEEEE"/>
<path d="M1048.55 763.746V772.555H1042.68C1015.7 772.555 989.551 781.551 968.576 798.024C946.033 815.731 917.961 825.375 889.032 825.375H873.164V816.566H889.032C916.01 816.566 942.161 807.57 963.135 791.097C985.678 773.391 1013.75 763.746 1042.68 763.746H1048.55Z" fill="#EEEEEE"/>
<path d="M1223.98 763.746V772.555H1218.12C1191.14 772.555 1164.99 781.551 1144.01 798.024C1121.47 815.731 1093.4 825.375 1064.47 825.375H1048.6V816.566H1064.47C1091.45 816.566 1117.6 807.57 1138.57 791.097C1161.12 773.391 1189.19 763.746 1218.12 763.746H1223.98Z" fill="#EEEEEE"/>
<path d="M1399.41 763.746V772.555H1393.55C1366.57 772.555 1340.42 781.551 1319.44 798.024C1296.9 815.731 1268.83 825.375 1239.9 825.375H1224.03V816.566H1239.9C1266.88 816.566 1293.03 807.57 1314 791.097C1336.55 773.391 1364.62 763.746 1393.55 763.746H1399.41Z" fill="#EEEEEE"/>
<path d="M1574.85 763.746V772.555H1568.98C1542.01 772.555 1515.86 781.551 1494.88 798.024C1472.34 815.731 1444.27 825.375 1415.34 825.375H1399.47V816.566H1415.34C1442.32 816.566 1468.47 807.57 1489.44 791.097C1511.98 773.391 1540.06 763.746 1568.98 763.746H1574.85Z" fill="#EEEEEE"/>
<path d="M1750.27 763.746V772.555H1744.41C1717.43 772.555 1691.28 781.551 1670.3 798.024C1647.76 815.731 1619.69 825.375 1590.76 825.375H1574.89V816.566H1590.76C1617.74 816.566 1643.89 807.57 1664.86 791.097C1687.4 773.391 1715.48 763.746 1744.41 763.746H1750.27Z" fill="#EEEEEE"/>
<path d="M1925.71 763.746V772.555H1919.84C1892.87 772.555 1866.71 781.551 1845.74 798.024C1823.2 815.731 1795.13 825.375 1766.2 825.375H1750.33V816.566H1766.2C1793.17 816.566 1819.33 807.57 1840.3 791.097C1862.84 773.391 1890.91 763.746 1919.84 763.746H1925.71Z" fill="#EEEEEE"/>
<path d="M168.671 -56.0469V1.87891H162.805C141.266 1.879 120.47 9.06578 103.87 22.1035C76.9526 43.2456 43.5257 54.6992 9.15723 54.6992H-6.71094V-3.22656H9.15723C30.696 -3.2266 51.4916 -10.4133 68.0908 -23.4512L69.3574 -24.4355C96.0536 -44.9483 128.973 -56.0468 162.805 -56.0469H168.671Z" fill="#EEEEEE"/>
<path d="M344.101 -56.0469V1.87891H338.234C316.696 1.879 295.9 9.06578 279.3 22.1035C252.382 43.2456 218.955 54.6992 184.587 54.6992H168.719V-3.22656H184.587C206.126 -3.2266 226.921 -10.4133 243.521 -23.4512L244.787 -24.4355C271.483 -44.9483 304.403 -56.0468 338.234 -56.0469H344.101Z" fill="#EEEEEE"/>
<path d="M519.53 -56.0469V1.87891H513.664C492.125 1.879 471.329 9.06578 454.729 22.1035C427.812 43.2456 394.385 54.6992 360.017 54.6992H344.148V-3.22656H360.017C381.555 -3.2266 402.351 -10.4133 418.95 -23.4512L420.217 -24.4355C446.913 -44.9483 479.832 -56.0468 513.664 -56.0469H519.53Z" fill="#EEEEEE"/>
<path d="M694.96 -56.0469V1.87891H689.094C667.555 1.879 646.759 9.06578 630.159 22.1035C603.242 43.2456 569.815 54.6992 535.446 54.6992H519.578V-3.22656H535.446C556.985 -3.2266 577.781 -10.4133 594.38 -23.4512L595.646 -24.4355C622.343 -44.9483 655.262 -56.0468 689.094 -56.0469H694.96Z" fill="#EEEEEE"/>
<path d="M870.382 -56.0469V1.87891H864.516C842.977 1.879 822.181 9.06578 805.581 22.1035C778.664 43.2456 745.237 54.6992 710.868 54.6992H695V-3.22656H710.868C732.407 -3.2266 753.203 -10.4133 769.802 -23.4512L771.068 -24.4355C797.765 -44.9483 830.684 -56.0468 864.516 -56.0469H870.382Z" fill="#EEEEEE"/>
<path d="M1045.81 -56.0469V1.87891H1039.95C1018.41 1.879 997.611 9.06578 981.011 22.1035C954.093 43.2456 920.666 54.6992 886.298 54.6992H870.43V-3.22656H886.298C907.837 -3.2266 928.632 -10.4133 945.231 -23.4512L946.498 -24.4355C973.194 -44.9483 1006.11 -56.0468 1039.95 -56.0469H1045.81Z" fill="#EEEEEE"/>
<path d="M1221.24 -56.0469V1.87891H1215.38C1193.84 1.879 1173.04 9.06578 1156.44 22.1035C1129.52 43.2456 1096.1 54.6992 1061.73 54.6992H1045.86V-3.22656H1061.73C1083.27 -3.2266 1104.06 -10.4133 1120.66 -23.4512L1121.93 -24.4355C1148.62 -44.9483 1181.54 -56.0468 1215.38 -56.0469H1221.24Z" fill="#EEEEEE"/>
<path d="M1396.69 -56.0469V1.87891H1390.82C1369.28 1.879 1348.49 9.06578 1331.89 22.1035C1304.97 43.2456 1271.54 54.6992 1237.17 54.6992H1221.3V-3.22656H1237.17C1258.71 -3.2266 1279.51 -10.4133 1296.11 -23.4512L1297.37 -24.4355C1324.07 -44.9483 1356.99 -56.0468 1390.82 -56.0469H1396.69Z" fill="#EEEEEE"/>
<path d="M1572.12 -56.0469V1.87891H1566.26C1544.72 1.879 1523.92 9.06578 1507.32 22.1035C1480.41 43.2456 1446.98 54.6992 1412.61 54.6992H1396.74V-3.22656H1412.61C1434.15 -3.2266 1454.94 -10.4133 1471.54 -23.4512L1472.81 -24.4355C1499.51 -44.9483 1532.43 -56.0468 1566.26 -56.0469H1572.12Z" fill="#EEEEEE"/>
<path d="M1747.54 -56.0469V1.87891H1741.67C1720.13 1.879 1699.34 9.06578 1682.74 22.1035C1655.82 43.2456 1622.39 54.6992 1588.02 54.6992H1572.16V-3.22656H1588.02C1609.56 -3.2266 1630.36 -10.4133 1646.96 -23.4512L1648.22 -24.4355C1674.92 -44.9483 1707.84 -56.0468 1741.67 -56.0469H1747.54Z" fill="#EEEEEE"/>
<path d="M1922.98 -56.0469V1.87891H1917.11C1895.57 1.879 1874.77 9.06578 1858.17 22.1035C1831.26 43.2456 1797.83 54.6992 1763.46 54.6992H1747.59V-3.22656H1763.46C1785 -3.2266 1805.8 -10.4133 1822.4 -23.4512L1823.66 -24.4355C1850.36 -44.9483 1883.28 -56.0468 1917.11 -56.0469H1922.98Z" fill="#EEEEEE"/>
</svg>
