<svg width="84" height="32" viewBox="0 0 84 32" fill="none" xmlns="http://www.w3.org/2000/svg">
<path d="M42 0V15.9388H40.5952C36.103 15.9388 31.5318 17.7513 27.6762 21.4366C21.1103 27.7131 12.6963 31.3333 3.79995 31.3333H0V15.3945H3.79995C8.29211 15.3945 12.8633 13.582 16.7187 9.8967L16.7188 9.89643C23.2848 3.62022 31.6988 0 40.5952 0H42Z" fill="#3F4443"/>
<path d="M84 0.666626V16.6054H82.5952C78.103 16.6054 73.5318 18.4179 69.6762 22.1033C63.1103 28.3797 54.6963 32 45.8 32H42V16.0611H45.8C50.2921 16.0611 54.8633 14.2487 58.7187 10.5633L58.7188 10.5631C65.2848 4.28685 73.6988 0.666626 82.5952 0.666626H84Z" fill="#3F4443"/>
</svg>
