<svg width="237" height="60" viewBox="0 0 237 60" fill="none" xmlns="http://www.w3.org/2000/svg">
<path d="M79.1241 0V29.4912H76.4775C68.0146 29.4913 59.4029 32.845 52.1395 39.6639C39.7699 51.277 23.9188 57.9752 7.15889 57.9752H0V28.484H7.15889C15.6217 28.484 24.2335 25.1306 31.4966 18.3117L31.4969 18.3113C43.8667 6.69866 59.7175 1.65872e-05 76.4775 0H79.1241Z" fill="#3F4443"/>
<path d="M158.023 1.00391V30.4951H155.376C146.913 30.4952 138.301 33.849 131.038 40.6679C118.668 52.2809 102.817 58.9791 86.0573 58.9792H78.8984V29.4879H86.0573C94.5202 29.4879 103.132 26.1345 110.395 19.3156L110.395 19.3152C122.765 7.70256 138.616 1.00392 155.376 1.00391H158.023Z" fill="#3F4443"/>
<path d="M236.999 2.02344V31.5147H234.353C225.89 31.5147 217.278 34.8685 210.014 41.6874C197.645 53.3004 181.794 59.9987 165.034 59.9987H157.875V30.5074H165.034C173.497 30.5074 182.108 27.154 189.372 20.3351L189.372 20.3347C201.742 8.72209 217.593 2.02345 234.353 2.02344H236.999Z" fill="#3F4443"/>
</svg>
