<svg width="368" height="262" viewBox="0 0 368 262" fill="none" xmlns="http://www.w3.org/2000/svg">
<g clip-path="url(#clip0_470_1325)">
<path d="M276.361 235.953L276.361 208.805L279.426 208.805C291.035 208.805 302.251 204.919 311.21 197.858L311.211 197.859C324.99 187.001 342.106 181.114 359.709 181.114L368 181.114L368 208.262L359.709 208.262C348.099 208.262 336.883 212.149 327.924 219.209L327.276 219.714C313.61 230.25 296.754 235.953 279.426 235.953L276.361 235.953Z" fill="#3F4443"/>
<path d="M276.362 290.07L276.362 262.922L279.451 262.922C291.152 262.922 302.456 259.036 311.486 251.976L311.486 251.976C325.374 241.118 342.625 235.231 360.366 235.231L368.723 235.231L368.723 262.38L360.366 262.38C348.665 262.38 337.361 266.266 328.331 273.326L327.678 273.832C313.904 284.367 296.915 290.07 279.451 290.07L276.362 290.07Z" fill="#3F4443"/>
<path d="M183.999 235.953L183.999 208.805L187.088 208.805C198.789 208.805 210.093 204.919 219.123 197.858L219.123 197.859C233.011 187.001 250.261 181.114 268.003 181.114L276.359 181.114L276.359 208.262L268.003 208.262C256.302 208.262 244.998 212.149 235.968 219.209L235.314 219.714C221.541 230.25 204.552 235.953 187.088 235.953L183.999 235.953Z" fill="#3F4443"/>
<path d="M183.999 290.07L183.999 262.922L187.088 262.922C198.789 262.922 210.093 259.036 219.123 251.976L219.123 251.976C233.011 241.118 250.261 235.231 268.003 235.231L276.359 235.231L276.359 262.38L268.003 262.38C256.302 262.38 244.998 266.266 235.968 273.326L235.314 273.832C221.541 284.367 204.552 290.07 187.088 290.07L183.999 290.07Z" fill="#3F4443"/>
<path d="M91.6392 235.953L91.6392 208.805L94.7285 208.805C106.429 208.805 117.733 204.919 126.763 197.858L126.764 197.859C140.651 187.001 157.902 181.114 175.643 181.114L184 181.114L184 208.262L175.643 208.262C163.942 208.262 152.638 212.149 143.609 219.209L142.955 219.714C129.182 230.25 112.193 235.953 94.7285 235.953L91.6392 235.953Z" fill="#3F4443"/>
<path d="M92.3608 290.07L92.3608 262.922L95.426 262.922C107.035 262.922 118.251 259.036 127.21 251.976L127.211 251.976C140.99 241.118 158.106 235.231 175.709 235.231L184 235.231L184 262.38L175.709 262.38C164.099 262.38 152.883 266.266 143.924 273.326L143.276 273.832C129.61 284.367 112.754 290.07 95.426 290.07L92.3608 290.07Z" fill="#3F4443"/>
<path d="M0.00141378 235.953L0.00141141 208.805L3.06658 208.805C14.6761 208.805 25.8917 204.919 34.8511 197.858L34.8516 197.859C48.6306 187.001 65.7466 181.114 83.3493 181.114L91.6406 181.114L91.6406 208.262L83.3493 208.262C71.7398 208.262 60.5238 212.149 51.5648 219.209L50.9163 219.714C37.2504 230.25 20.3944 235.953 3.06658 235.953L0.00141378 235.953Z" fill="#3F4443"/>
<path d="M-0.00141493 290.07L-0.00141731 262.922L3.08789 262.922C14.7888 262.922 26.0927 259.036 35.1226 251.976L35.1232 251.976C49.0107 241.118 66.2614 235.231 84.0028 235.231L92.3594 235.231L92.3594 262.38L84.0028 262.38C72.3018 262.38 60.9976 266.266 51.968 273.326L51.3144 273.832C37.5409 284.367 20.5521 290.07 3.08789 290.07L-0.00141493 290.07Z" fill="#3F4443"/>
<path d="M276.361 134.212L276.361 115.024L279.426 115.024C291.721 115.024 303.621 110.97 313.211 103.571L313.666 103.216C326.737 92.9068 342.986 87.31 359.709 87.31L368 87.31L368 106.498L359.709 106.498C347.219 106.498 335.136 110.681 325.469 118.306C312.398 128.615 296.148 134.212 279.426 134.212L276.361 134.212Z" fill="#3F4443"/>
<path d="M276.361 181.114L276.361 161.926L279.426 161.926C291.721 161.926 303.621 157.872 313.211 150.473L313.666 150.118C326.737 139.809 342.986 134.212 359.709 134.212L368 134.212L368 153.4L359.709 153.4C347.219 153.4 335.136 157.584 325.469 165.208C312.398 175.517 296.148 181.114 279.426 181.114L276.361 181.114Z" fill="#3F4443"/>
<path d="M184.001 134.212L184.001 115.024L187.067 115.024C199.362 115.024 211.262 110.97 220.852 103.571L221.306 103.216C234.377 92.9068 250.627 87.31 267.349 87.31L275.641 87.31L275.641 106.498L267.349 106.498C254.859 106.498 242.777 110.681 233.109 118.306C220.038 128.615 203.789 134.212 187.067 134.212L184.001 134.212Z" fill="#3F4443"/>
<path d="M183.999 181.114L183.999 161.926L187.088 161.926C199.48 161.926 211.473 157.872 221.139 150.473L221.597 150.118C234.771 139.809 251.149 134.212 268.003 134.212L276.359 134.212L276.359 153.4L268.003 153.4C255.414 153.4 243.237 157.584 233.493 165.208C220.319 175.517 203.942 181.114 187.088 181.114L183.999 181.114Z" fill="#3F4443"/>
<path d="M91.6392 134.212L91.6392 115.024L94.7285 115.024C107.12 115.024 119.114 110.97 128.78 103.571L129.238 103.216C142.412 92.9068 158.789 87.31 175.643 87.31L184 87.31L184 106.498L175.643 106.498C163.055 106.498 150.877 110.681 141.134 118.306C127.96 128.615 111.583 134.212 94.7285 134.212L91.6392 134.212Z" fill="#3F4443"/>
<path d="M91.6392 181.114L91.6392 161.926L94.7285 161.926C107.12 161.926 119.114 157.872 128.78 150.473L129.238 150.118C142.412 139.809 158.789 134.212 175.643 134.212L184 134.212L184 153.4L175.643 153.4C163.055 153.4 150.877 157.584 141.134 165.208C127.96 175.517 111.583 181.114 94.7285 181.114L91.6392 181.114Z" fill="#3F4443"/>
<path d="M0.00141378 134.212L0.0014121 115.024L3.06658 115.024C15.3615 115.024 27.2616 110.97 36.8518 103.571L37.3065 103.216C50.3774 92.9068 66.6269 87.31 83.3493 87.31L91.6406 87.31L91.6406 106.498L83.3493 106.498C70.8593 106.498 58.7765 110.681 49.1094 118.306C36.0383 128.615 19.789 134.212 3.06658 134.212L0.00141378 134.212Z" fill="#3F4443"/>
<path d="M0.00141378 181.114L0.0014121 161.926L3.06658 161.926C15.3615 161.926 27.2616 157.872 36.8518 150.473L37.3065 150.118C50.3774 139.809 66.6269 134.212 83.3493 134.212L91.6406 134.212L91.6406 153.4L83.3493 153.4C70.8593 153.4 58.7765 157.584 49.1094 165.208C36.0383 175.517 19.789 181.114 3.06658 181.114L0.00141378 181.114Z" fill="#3F4443"/>
<path d="M275.639 41.8506L275.639 27.8009L278.729 27.8009C291.893 27.8009 304.638 23.4127 314.845 15.4006C327.555 5.42265 343.365 -0.000339976 359.643 -0.00036304L368 -0.00036377L368 14.0493L359.643 14.0493C346.479 14.0494 333.734 18.4374 323.528 26.4496L323.528 26.4501C310.817 36.4278 295.007 41.8506 278.729 41.8506L275.639 41.8506Z" fill="#3F4443"/>
<path d="M275.639 88.0313L275.639 73.9816L278.729 73.9816C291.893 73.9815 304.638 69.5934 314.845 61.5813C327.555 51.6033 343.365 46.1803 359.643 46.1803L368 46.1803L368 60.23L359.643 60.23C346.479 60.23 333.734 64.6181 323.528 72.6303L323.528 72.6308C310.817 82.6085 295.007 88.0312 278.729 88.0313L275.639 88.0313Z" fill="#3F4443"/>
<path d="M183.28 41.8506L183.28 27.8009L186.369 27.8009C199.534 27.8009 212.278 23.4127 222.485 15.4006C235.196 5.42265 251.006 -0.000339976 267.284 -0.00036304L275.641 -0.00036377L275.641 14.0493L267.284 14.0493C254.12 14.0494 241.375 18.4374 231.168 26.4496L231.168 26.4501C218.458 36.4278 202.647 41.8506 186.369 41.8506L183.28 41.8506Z" fill="#3F4443"/>
<path d="M183.28 88.0313L183.28 74.0133L186.369 74.0133C199.539 74.0133 212.29 69.6179 222.501 61.5933L222.501 61.5938C235.207 51.6079 251.012 46.1803 267.284 46.1803L275.641 46.1803L275.641 60.1983L267.284 60.1983C254.114 60.1983 241.364 64.5935 231.153 72.6183L230.555 73.083C217.952 82.7722 202.387 88.0313 186.369 88.0313L183.28 88.0313Z" fill="#3F4443"/>
<path d="M91.6381 41.8506L91.6381 27.8009L94.7033 27.8009C107.765 27.8009 120.41 23.4127 130.537 15.4006C143.149 5.42265 158.835 -0.000339993 174.986 -0.000363046L183.277 -0.00036377L183.277 14.0493L174.986 14.0493C161.925 14.0494 149.279 18.4374 139.153 26.4496L139.153 26.4501C126.541 36.4278 110.854 41.8506 94.7033 41.8506L91.6381 41.8506Z" fill="#3F4443"/>
<path d="M91.6381 88.0313L91.6381 73.9816L94.7033 73.9816C107.765 73.9815 120.41 69.5934 130.537 61.5813C143.149 51.6033 158.835 46.1803 174.986 46.1803L183.277 46.1803L183.277 60.23L174.986 60.23C161.925 60.23 149.279 64.6181 139.153 72.6303L139.153 72.6308C126.541 82.6085 110.854 88.0312 94.7033 88.0313L91.6381 88.0313Z" fill="#3F4443"/>
<path d="M-0.720165 41.8506L-0.720166 27.8009L2.36914 27.8009C15.5335 27.8009 28.2784 23.4127 38.4853 15.4006C51.1959 5.42265 67.006 -0.000339976 83.284 -0.00036304L91.6406 -0.00036377L91.6406 14.0493L83.284 14.0493C70.1197 14.0494 57.3749 18.4374 47.1684 26.4496L47.1684 26.4501C34.4576 36.4278 18.6472 41.8506 2.36914 41.8506L-0.720165 41.8506Z" fill="#3F4443"/>
<path d="M-0.720165 88.0313L-0.720166 73.9816L2.36914 73.9816C15.5335 73.9815 28.2784 69.5934 38.4853 61.5813C51.1959 51.6033 67.006 46.1803 83.284 46.1803L91.6406 46.1803L91.6406 60.23L83.284 60.23C70.1197 60.23 57.3749 64.6181 47.1684 72.6303L47.1684 72.6308C34.4576 82.6085 18.6472 88.0312 2.36914 88.0313L-0.720165 88.0313Z" fill="#3F4443"/>
</g>
<defs>
<clipPath id="clip0_470_1325">
<rect width="368" height="262" fill="white" transform="translate(368 262) rotate(180)"/>
</clipPath>
</defs>
</svg>
